<svg xmlns="http://www.w3.org/2000/svg" width="138" height="189.783" viewBox="0 0 138 189.783">
  <defs>
    <style>
      .cls-1 {
        fill: #788cde;
      }

      .cls-2 {
        fill: #8bd3ce;
      }

      .cls-3 {
        fill: #fff;
        font-size: 36px;
        font-family: SitkaText, Sitka Text;
      }
    </style>
  </defs>
  <g id="Group_5" data-name="Group 5" transform="translate(-384 -265.109)">
    <g id="_20830632741582956833" data-name="20830632741582956833" transform="translate(388.691 259.765)">
      <path id="Path_1" data-name="Path 1" class="cls-1" d="M84.466,76.138A41.2,41.2,0,1,0,2.89,87.709a40.411,40.411,0,0,0,1.248,5.784A41.477,41.477,0,0,0,9.3,103.728c.021.328.042.655.045.98a18.984,18.984,0,0,1-7.633,15.657.985.985,0,0,0,.439,1.765,29.352,29.352,0,0,0,20.624-4.711c.186-.123.37-.25.55-.376l.15-.108a48.688,48.688,0,0,0,15.119,5.881A41.228,41.228,0,0,0,84.466,76.138ZM24.44,87.382a5.458,5.458,0,1,1,5.46-5.459,5.458,5.458,0,0,1-5.46,5.459Zm19.358,0a5.458,5.458,0,1,1,5.46-5.459,5.458,5.458,0,0,1-5.46,5.459Zm19.355,0a5.458,5.458,0,1,1,5.46-5.459,5.458,5.458,0,0,1-5.46,5.459Z"/>
      <path id="Path_2" data-name="Path 2" class="cls-2" d="M126.662,85.545a.976.976,0,0,1-.809.737,29.35,29.35,0,0,1-20.624-4.708c-.186-.123-.37-.253-.55-.379l-.15-.108A48.576,48.576,0,0,1,89.89,86.862a46.535,46.535,0,0,0-45.38-51.4,41.2,41.2,0,1,1,79.355,22.182,41.571,41.571,0,0,1-5.159,10.233c-.024.328-.045.655-.048.98a18.99,18.99,0,0,0,7.633,15.66.977.977,0,0,1,.37,1.025Z"/>
    </g>
    <text id="iChatter" class="cls-3" transform="translate(384 445.891)"><tspan x="0" y="0">iChatter</tspan></text>
  </g>
</svg>
